<svg id="m-icon-2" xmlns="http://www.w3.org/2000/svg" width="24" height="24" viewBox="0 0 24 24">
  <path id="Path_28877" data-name="Path 28877" d="M2.438,311.844H.7a.7.7,0,0,1-.7-.7V302.7a.7.7,0,0,1,.7-.7H2.438a.7.7,0,0,1,.7.7v8.438A.7.7,0,0,1,2.438,311.844Z" transform="translate(0 -287.844)" fill="#fff"/>
  <path id="Path_28878" data-name="Path 28878" d="M115.574,313.726a1.7,1.7,0,0,0-1.726.053l-2.573,1.629a3.049,3.049,0,0,1-3.026,2.686h-3.5a.716.716,0,0,1-.722-.669.7.7,0,0,1,.7-.737h3.516a1.642,1.642,0,0,0,1.64-1.68,1.661,1.661,0,0,0-1.671-1.6h-3.954l-.459-.344a5.311,5.311,0,0,0-5.92-.305l-.887.533v7.148h11.818a3.516,3.516,0,0,0,1.924-.573l4.942-3.232a1.7,1.7,0,0,0-.11-2.907Z" transform="translate(-92.453 -297.375)" fill="#fff"/>
  <path id="Path_28879" data-name="Path 28879" d="M92.859,0a5.859,5.859,0,1,0,5.859,5.859A5.866,5.866,0,0,0,92.859,0Zm.7,8.769v.137a.7.7,0,0,1-1.406,0V8.768a1.88,1.88,0,0,1-1.134-1.363.7.7,0,1,1,1.378-.28.469.469,0,1,0,.459-.563,1.875,1.875,0,0,1-.7-3.613V2.813a.7.7,0,1,1,1.406,0V2.95A1.88,1.88,0,0,1,94.7,4.313a.7.7,0,0,1-1.378.28.469.469,0,1,0-.459.563,1.875,1.875,0,0,1,.7,3.613Z" transform="translate(-82.922)" fill="#fff"/>
  <path id="Path_28880" data-name="Path 28880" d="M334.447,28.4a.7.7,0,0,0-.637-.4h-1.023a12,12,0,0,0-7-8.123,7.258,7.258,0,0,1,1.731,6.626,7.825,7.825,0,0,1,.82,1.5h-.619a.7.7,0,0,0-.54,1.153l3.047,3.656a.7.7,0,0,0,1.08,0l3.047-3.656A.7.7,0,0,0,334.447,28.4Z" transform="translate(-310.514 -18.938)" fill="#fff"/>
</svg>
