<svg xmlns="http://www.w3.org/2000/svg" width="63.695" height="63.695" viewBox="0 0 63.695 63.695">
  <path id="micro-icon" d="M58.1,41.178a5.548,5.548,0,0,0-3.632,1.373l-10.49-5.922a12.775,12.775,0,0,0-2.336-13.336L52.231,10.933a5.549,5.549,0,0,0,2.009.388,5.6,5.6,0,0,0,5.6-5.6,5.6,5.6,0,1,0-11.2,0,5.534,5.534,0,0,0,.764,2.772L38.824,20.844a12.744,12.744,0,0,0-12.569-.751l-4.868-7.3a5.546,5.546,0,0,0,1.13-3.338,5.685,5.685,0,1,0-4.234,5.411l4.871,7.305a12.6,12.6,0,0,0-3.876,13.034L9.7,39.258a5.578,5.578,0,1,0,1.5,3.786c0-.121-.028-.235-.035-.354l9.582-4.053a13.027,13.027,0,0,0,11.085,6.272l1.161,8.256a5.565,5.565,0,1,0,3.692-.554l-1.166-8.289a13.021,13.021,0,0,0,6.578-4.469L52.6,45.784a5.592,5.592,0,1,0,5.5-4.606Zm0,0" fill="#1c6084"/>
</svg>
