<svg id="pdf-icon" xmlns="http://www.w3.org/2000/svg" width="38.325" height="43.8" viewBox="0 0 38.325 43.8">
  <path id="Path_19172" data-name="Path 19172" d="M17.737,0A2.746,2.746,0,0,0,15,2.737V41.062A2.746,2.746,0,0,0,17.737,43.8H45.112a2.746,2.746,0,0,0,2.737-2.737V10.95L36.9,0Z" transform="translate(-9.525)" fill="#e2e2e2"/>
  <path id="Path_19173" data-name="Path 19173" d="M57.737,10.95H65.95L55,0V8.212A2.746,2.746,0,0,0,57.737,10.95Z" transform="translate(-27.625)" fill="#ededed"/>
  <path id="Path_19174" data-name="Path 19174" d="M68.212,28.212,60,20h8.212Z" transform="translate(-29.888 -9.05)" fill="#f8fafc"/>
  <path id="Path_19175" data-name="Path 19175" d="M37.85,52.556a1.373,1.373,0,0,1-1.369,1.369H6.369A1.373,1.373,0,0,1,5,52.556V38.869A1.373,1.373,0,0,1,6.369,37.5H36.481a1.373,1.373,0,0,1,1.369,1.369Z" transform="translate(-5 -16.969)" fill="#f15642"/>
  <g id="Group_27062" data-name="Group 27062" transform="translate(5.966 25.178)">
    <path id="Path_19176" data-name="Path 19176" d="M15.9,46.743a.753.753,0,0,1,.743-.756h2.528a2.736,2.736,0,0,1,0,5.472H17.342v1.445a.687.687,0,0,1-.7.754.737.737,0,0,1-.743-.754Zm1.444.623v2.727h1.827a1.364,1.364,0,0,0,0-2.727Z" transform="translate(-15.898 -45.988)" fill="#fff"/>
    <path id="Path_19177" data-name="Path 19177" d="M30.1,53.741a.685.685,0,0,1-.756-.678V46.846a.744.744,0,0,1,.756-.679h2.506c5,0,4.892,7.573.1,7.573Zm.69-6.237v4.9h1.816c2.955,0,3.086-4.9,0-4.9Z" transform="translate(-21.984 -46.069)" fill="#fff"/>
    <path id="Path_19178" data-name="Path 19178" d="M46.3,47.59v1.74h2.791a.846.846,0,0,1,.788.776.76.76,0,0,1-.788.657H46.3v2.3a.648.648,0,0,1-.656.678.7.7,0,0,1-.776-.678V46.844a.692.692,0,0,1,.776-.679h3.842a.683.683,0,0,1,.766.679.756.756,0,0,1-.766.745H46.3Z" transform="translate(-29.005 -46.068)" fill="#fff"/>
  </g>
  <path id="Path_19179" data-name="Path 19179" d="M41.006,66.369H15v1.369H41.006a1.373,1.373,0,0,0,1.369-1.369V65A1.373,1.373,0,0,1,41.006,66.369Z" transform="translate(-9.525 -29.413)" fill="#cad1d8"/>
</svg>
