<svg xmlns="http://www.w3.org/2000/svg" width="47.385" height="45.418" viewBox="0 0 47.385 45.418">
  <g id="word-icon" transform="translate(0 -1.169)">
    <g id="Group_66975" data-name="Group 66975" transform="translate(0 1.169)">
      <path id="Path_28898" data-name="Path 28898" d="M27.27,1.39a.987.987,0,0,0-.837-.2L.766,7.116A.987.987,0,0,0,0,8.087V41.651a.987.987,0,0,0,.837.975L26.5,46.575a.987.987,0,0,0,1.137-.975V2.164A.987.987,0,0,0,27.27,1.39Z" transform="translate(0 -1.169)" fill="#1565c0"/>
      <path id="Path_28899" data-name="Path 28899" d="M51.247,43.386H31.5a.987.987,0,1,1,0-1.974H50.26V7.848H31.5a.987.987,0,1,1,0-1.974H51.247a.987.987,0,0,1,.987.987V42.4A.987.987,0,0,1,51.247,43.386Z" transform="translate(-4.85 -1.917)" fill="#1565c0"/>
    </g>
    <path id="Path_28900" data-name="Path 28900" d="M17.526,35.748a.987.987,0,0,1-.948-.715l-3-10.5-3,10.5a1.027,1.027,0,0,1-1.9,0L4.731,21.213a.987.987,0,1,1,1.881-.6q.009.027.016.055l3,10.5,3-10.5a1.027,1.027,0,0,1,1.9,0l3,10.5,3-10.5a.975.975,0,0,1,1.2-.684l.022.006a.987.987,0,0,1,.677,1.22l-3.949,13.82A.987.987,0,0,1,17.526,35.748Z" transform="translate(-0.744 -2.981)" fill="#fafafa"/>
    <g id="Group_66976" data-name="Group 66976" transform="translate(25.667 11.049)">
      <path id="Path_28901" data-name="Path 28901" d="M47.3,14.89H31.5a.987.987,0,1,1,0-1.974H47.3a.987.987,0,0,1,0,1.974Z" transform="translate(-30.517 -12.916)" fill="#1565c0"/>
      <path id="Path_28902" data-name="Path 28902" d="M47.3,21.932H31.5a.987.987,0,0,1,0-1.974H47.3a.987.987,0,0,1,0,1.974Z" transform="translate(-30.517 -14.035)" fill="#1565c0"/>
      <path id="Path_28903" data-name="Path 28903" d="M47.3,28.975H31.5A.987.987,0,1,1,31.5,27H47.3a.987.987,0,0,1,0,1.974Z" transform="translate(-30.517 -15.154)" fill="#1565c0"/>
      <path id="Path_28904" data-name="Path 28904" d="M47.3,36.017H31.5a.987.987,0,1,1,0-1.974H47.3a.987.987,0,0,1,0,1.974Z" transform="translate(-30.517 -16.273)" fill="#1565c0"/>
      <path id="Path_28905" data-name="Path 28905" d="M47.3,43.059H31.5a.987.987,0,1,1,0-1.974H47.3a.987.987,0,0,1,0,1.974Z" transform="translate(-30.517 -17.392)" fill="#1565c0"/>
    </g>
  </g>
</svg>
