<svg xmlns="http://www.w3.org/2000/svg" xmlns:xlink="http://www.w3.org/1999/xlink" width="958.522" height="400.702" viewBox="0 0 958.522 400.702">
  <defs>
    <linearGradient id="linear-gradient" x1="-4.391" y1="-2.117" x2="1.179" y2="-2.661" gradientUnits="objectBoundingBox">
      <stop offset="0" stop-color="#fff"/>
      <stop offset="1" stop-color="#fff" stop-opacity="0"/>
    </linearGradient>
  </defs>
  <g id="bg-shape" transform="translate(865.35 347.797)">
    <path id="Path_205" data-name="Path 205" d="M-824-314.369a28.934,28.934,0,0,0,9.021-10.642c2.244-4.8,2.468-9.508,2.7-14.489a65.93,65.93,0,0,1,.775-8.3h-1.245a67.814,67.814,0,0,0-.746,8.265c-.232,4.912-.454,9.549-2.637,14.223A28.025,28.025,0,0,1-824.874-315c-7.38,5.655-18.184,9-28.633,12.237-3.97,1.231-8,2.5-11.843,3.885v1c3.889-1.419,8.01-2.719,12.312-4.052C-842.477-305.2-831.556-308.582-824-314.369Z" transform="translate(0)" fill="url(#linear-gradient)"/>
    <path id="Path_206" data-name="Path 206" d="M-855.177-291.261a167.151,167.151,0,0,1,18.155-6.02c10.3-3,20.939-6.106,28.523-11.412a31.048,31.048,0,0,0,9.342-9.692c2.574-4.412,3.251-8.754,3.968-13.35.81-5.188,1.643-10.531,5.449-16.062h-1.341c-3.661,5.516-4.515,10.813-5.317,15.957-.707,4.528-1.374,8.806-3.877,13.094a30.075,30.075,0,0,1-9.059,9.393c-7.411,5.188-17.947,8.259-28.133,11.23a170.879,170.879,0,0,0-18.312,6.075l-6.266,2.646c-1.106.469-2.2.929-3.307,1.4v1.04c1.305-.552,2.6-1.1,3.908-1.649Z" transform="translate(0)" fill="url(#linear-gradient)"/>
    <path id="Path_207" data-name="Path 207" d="M-821.008-292.632c10.024-2.734,20.392-5.559,28.007-10.384a34.152,34.152,0,0,0,9.66-8.74c2.913-4.021,4.059-8,5.271-12.217,1.535-5.334,3.122-10.848,8.613-16.569a47.625,47.625,0,0,1,9.09-7.254h-1.885a47.774,47.774,0,0,0-8.195,6.727c-5.638,5.875-7.252,11.483-8.812,16.907-1.193,4.15-2.32,8.07-5.153,11.976a33.146,33.146,0,0,1-9.378,8.481c-7.449,4.721-17.711,7.518-27.638,10.224a180.1,180.1,0,0,0-17.881,5.528q-13.137,5.121-26.04,10.224v1.023q13.181-5.208,26.606-10.448A176.749,176.749,0,0,1-821.008-292.632Z" transform="translate(0)" fill="url(#linear-gradient)"/>
    <path id="Path_208" data-name="Path 208" d="M-850.351-272.887c10.694-3.925,19.6-7.152,28.04-10.159,5.283-1.9,11.131-3.378,17.32-4.943,9.751-2.464,19.833-5.012,27.487-9.35a39.046,39.046,0,0,0,9.975-7.787c3.265-3.631,4.9-7.256,6.626-11.093,2.134-4.733,4.339-9.626,9.9-14.681,9.43-8.569,25.088-14.9,39.894-16.125,1.7-.14,3.7-.3,5.656-.388,14.106-.664,25.411.33,36.342,1.292,16.112,1.415,31.5,2.743,53.345-1.674h-4.985c-19.207,3.3-33.4,2.076-48.217.775-3.062-.27-6.162-.538-9.336-.775h-34.183c-14.933,1.5-29.952,7.686-39.457,16.323-5.7,5.183-7.946,10.156-10.113,14.968-1.7,3.777-3.309,7.347-6.483,10.878a37.992,37.992,0,0,1-9.7,7.57c-7.5,4.249-17.483,6.773-27.138,9.213-5.955,1.5-12.109,3.059-17.458,4.984-8.439,3.007-17.353,6.236-28.05,10.162q-4.115,1.51-8.263,3.016-3.086,1.123-6.2,2.259v1.011q3.375-1.237,6.732-2.458Q-854.473-271.381-850.351-272.887Z" transform="translate(0)" fill="url(#linear-gradient)"/>
    <path id="Path_209" data-name="Path 209" d="M-833.384-269.846c8.4-2.845,17.392-5.819,27.5-9.093,5.169-1.674,10.818-2.984,16.8-4.372,9.51-2.205,19.342-4.488,27.07-8.35a46.351,46.351,0,0,0,10.281-6.834,45.867,45.867,0,0,0,8.076-9.991c2.71-4.124,5.511-8.389,11.1-12.773,9.811-7.694,24.828-13.479,39.191-15.1,1.695-.19,3.614-.405,5.428-.558,13.522-1.142,24.416-1.1,34.952-1.054,18.391.076,35.781.143,63.887-6.2,5.294-1.194,10.393-2.432,15.333-3.629h-3.943c-3.825.923-7.714,1.856-11.744,2.763-27.926,6.3-45.217,6.229-63.527,6.157-10.573-.043-21.505-.088-35.095,1.059-1.838.154-3.769.371-5.474.564-14.618,1.649-29.9,7.538-39.889,15.372-5.719,4.485-8.564,8.814-11.313,13a45.239,45.239,0,0,1-7.915,9.808,45.288,45.288,0,0,1-10.029,6.663c-7.579,3.788-17.328,6.051-26.753,8.238-5.748,1.333-11.692,2.712-16.924,4.408-10.114,3.273-19.116,6.249-27.518,9.1l-5.418,1.829c-8.646,2.916-17.442,5.886-26.045,9.133v1.019c8.758-3.32,17.728-6.354,26.548-9.329Z" transform="translate(0)" fill="url(#linear-gradient)"/>
    <path id="Path_210" data-name="Path 210" d="M-411.339-347.8h-1.979a109.327,109.327,0,0,0,21.926,9.871v-1.014A108.989,108.989,0,0,1-411.339-347.8Z" transform="translate(484.564)" fill="url(#linear-gradient)"/>
    <path id="Path_211" data-name="Path 211" d="M-649.607-340.068a151.34,151.34,0,0,0,47.253,5.114c21.26-.986,35.194-6.645,49.493-12.843h-2.426c-13.551,5.829-27.062,11.007-47.144,11.939a150.049,150.049,0,0,1-46.76-5.06c-6.359-1.732-12.761-3.774-18.954-5.749q-1.772-.566-3.558-1.131h-3.12c2.051.644,4.113,1.3,6.2,1.962C-662.416-343.855-656-341.808-649.607-340.068Z" transform="translate(204.239)" fill="url(#linear-gradient)"/>
    <path id="Path_212" data-name="Path 212" d="M-816.414-266.806c7.985-2.472,16.8-5.1,26.958-8.026,5.083-1.466,10.565-2.618,16.373-3.839,9.231-1.94,18.776-3.947,26.559-7.313a58.129,58.129,0,0,0,10.585-5.88,59.127,59.127,0,0,0,9.678-8.923,63.591,63.591,0,0,1,12.15-10.83c10.167-6.786,24.559-12.049,38.5-14.077l.7-.1c1.529-.223,3.025-.442,4.494-.627,13.528-1.7,24.428-2.643,34.968-3.557,17.235-1.5,33.514-2.91,59.631-7.341l1.774-.3c29.789-5.057,53.316-9.048,83.863-3.084,10.453,2.056,20.836,5.627,31.83,9.407,6.8,2.34,13.835,4.758,20.881,6.783a143.118,143.118,0,0,0,45.577,5.476c22.8-.9,35.864-7.621,49.7-14.735,8.321-4.28,16.924-8.7,28.036-11.984a73.139,73.139,0,0,1,7.532-1.8c.508-.092,1.007-.157,1.515-.242h-4.834c-1.54.35-3.093.737-4.66,1.2-11.242,3.317-19.9,7.771-28.28,12.078-13.687,7.04-26.617,13.69-49.068,14.578a141.479,141.479,0,0,1-45.076-5.419c-7.01-2.013-14.023-4.423-20.809-6.758-11.042-3.8-21.472-7.385-32.028-9.461-30.844-6.023-54.5-2.007-84.443,3.078l-1.776.3c-26.053,4.419-42.3,5.83-59.5,7.324-10.557.915-21.472,1.863-35.029,3.563-1.481.186-2.985.407-4.529.633l-.7.1c-14.147,2.059-28.755,7.4-39.078,14.291a64.527,64.527,0,0,0-12.341,10.99,58.267,58.267,0,0,1-9.512,8.782,56.9,56.9,0,0,1-10.36,5.752c-7.649,3.309-17.119,5.3-26.279,7.225-5.578,1.173-11.346,2.386-16.48,3.867-10.163,2.931-18.99,5.561-26.99,8.034l-3.531,1.091c-15.262,4.71-30.976,9.568-44.935,16.279v1.093c14.033-6.835,29.944-11.767,45.4-16.535Z" transform="translate(0)" fill="url(#linear-gradient)"/>
    <path id="Path_213" data-name="Path 213" d="M-421.615-347.8h-1.73a104.78,104.78,0,0,0,35.621,16.233c2.329.593,4.7,1.117,7.08,1.594v-.934c-2.254-.456-4.488-.956-6.684-1.515A104.117,104.117,0,0,1-421.615-347.8Z" transform="translate(473.816)" fill="url(#linear-gradient)"/>
    <path id="Path_214" data-name="Path 214" d="M-851.4-245.017c14.624-8.364,32.544-13.35,49.877-18.169l2.072-.576c7.7-2.147,16.346-4.425,26.422-6.963,5-1.261,10.331-2.259,15.973-3.317,8.941-1.675,18.184-3.406,26.016-6.265a77.985,77.985,0,0,0,10.884-4.927,84.193,84.193,0,0,0,11.578-7.925,97.207,97.207,0,0,1,12.9-8.814c10.463-5.835,24.244-10.592,37.813-13.058l1.682-.308c1.11-.2,2.2-.407,3.286-.592,9.761-1.669,18.009-3.212,25.984-4.7,19.145-3.579,35.677-6.672,64.364-9.842,29.057-3.212,53.063-3.617,82.918,4.284,8.748,2.327,17.485,5.6,26.737,9.059,7.573,2.836,15.405,5.766,23.32,8.165a135.065,135.065,0,0,0,43.9,5.843c23.179-.755,34.989-7.985,47.494-15.638,7.387-4.522,15.024-9.2,25.4-12.718a60.8,60.8,0,0,1,7.148-1.946c10.828-2.233,21.617-2.5,31.138-2.731,9.454-.231,18.385-.45,25.7-2.538,6.137-1.754,11.818-3.569,17.833-5.49,3.726-1.191,7.494-2.393,11.456-3.611h-3.164c-2.994.934-5.9,1.86-8.771,2.779-6,1.917-11.678,3.73-17.792,5.477-7.119,2.034-15.95,2.25-25.3,2.48-9.589.234-20.454.5-31.423,2.763a62.371,62.371,0,0,0-7.329,1.994c-10.519,3.569-18.221,8.284-25.668,12.843-12.343,7.555-24,14.69-46.773,15.432a133.235,133.235,0,0,1-43.389-5.776c-7.867-2.386-15.679-5.308-23.229-8.134-9.287-3.475-18.057-6.757-26.876-9.1-30.1-7.965-54.263-7.561-83.5-4.328-28.746,3.178-45.306,6.274-64.482,9.86-7.971,1.49-16.211,3.031-25.962,4.7-1.088.185-2.188.388-3.307.595l-1.676.308c-13.722,2.492-27.667,7.308-38.255,13.211a98.23,98.23,0,0,0-13.052,8.913,83.244,83.244,0,0,1-11.425,7.824,76.616,76.616,0,0,1-10.7,4.841c-7.716,2.817-16.9,4.539-25.777,6.2-5.416,1.016-11.019,2.065-16.064,3.337-10.089,2.541-18.743,4.822-26.459,6.972l-2.072.576c-17.415,4.844-35.422,9.853-50.192,18.3a109.72,109.72,0,0,0-13.209,8.982v1.318A109.9,109.9,0,0,1-851.4-245.017Z" transform="translate(0)" fill="url(#linear-gradient)"/>
    <path id="Path_215" data-name="Path 215" d="M-431.452-347.8h-1.653a105.052,105.052,0,0,0,43.667,21.018,182,182,0,0,0,19.257,2.981v-.914a179.854,179.854,0,0,1-18.907-2.934A103.917,103.917,0,0,1-431.452-347.8Z" transform="translate(463.353)" fill="url(#linear-gradient)"/>
    <path id="Path_216" data-name="Path 216" d="M-457.939-345.613a66.853,66.853,0,0,0,8.1-2.184h-3.127c-1.782.521-3.531.955-5.294,1.311-14.379,2.914-25.3,1.245-36.036-1.311h-3.879C-486.094-344.75-474.228-342.312-457.939-345.613Z" transform="translate(393.604)" fill="url(#linear-gradient)"/>
    <path id="Path_217" data-name="Path 217" d="M-860.23-219.154c2.7-2.279,5.313-4.949,8.081-7.777,1.606-1.64,3.267-3.337,4.97-4.979a82.869,82.869,0,0,1,14.382-11.3c14.04-8.59,32.02-13.015,49.408-17.293l.9-.222c7.432-1.829,15.9-3.759,25.883-5.9,4.935-1.059,10.124-1.906,15.616-2.8,8.63-1.41,17.554-2.87,25.425-5.209a113.444,113.444,0,0,0,11.18-3.978,135.035,135.035,0,0,0,14.172-7.068c3.914-2.153,7.961-4.38,12.966-6.653a194.868,194.868,0,0,1,37.136-12.037q1.243-.275,2.453-.555c.771-.176,1.531-.35,2.287-.516,10.275-2.276,18.9-4.819,27.238-7.279,16.866-4.97,32.8-9.666,58.856-10.918,28.3-1.359,51.536,2.105,80.2,11.952,6.788,2.343,13.588,5.149,20.788,8.12,8.6,3.551,17.5,7.222,26.614,10.146a126.75,126.75,0,0,0,42.22,6.206c23.509-.6,34.013-8.322,45.134-16.5,6.5-4.781,13.223-9.725,22.922-13.493a51.658,51.658,0,0,1,6.765-2.1c9.229-2.169,18.48-2.637,27.429-3.089,10.091-.512,19.626-.994,27.164-4.012,5.619-2.252,10.751-4.608,16.182-7.1,10.495-4.819,21.314-9.783,36.469-14.294h-3.205c-13.82,4.309-24.008,8.98-33.9,13.524-5.416,2.487-10.534,4.838-16.122,7.076-7.306,2.927-16.713,3.4-26.671,3.907-9.017.456-18.343.928-27.711,3.129a52.815,52.815,0,0,0-6.96,2.158c-9.861,3.831-16.65,8.825-23.216,13.652-10.946,8.05-21.288,15.654-44.318,16.238a124.9,124.9,0,0,1-41.7-6.132c-9.057-2.905-17.929-6.567-26.509-10.107-7.217-2.978-14.037-5.792-20.865-8.148-28.863-9.917-52.261-13.4-80.788-12.035-26.254,1.261-42.268,5.983-59.225,10.981-8.317,2.45-16.913,4.986-27.139,7.251q-1.137.252-2.3.519c-.806.183-1.618.37-2.443.552A196.34,196.34,0,0,0-677.878-293.1c-5.051,2.293-9.121,4.533-13.055,6.7a134.493,134.493,0,0,1-14.042,7.006,112.329,112.329,0,0,1-11.039,3.927c-7.778,2.312-16.652,3.762-25.235,5.166-5.513.9-10.72,1.752-15.693,2.817-10,2.142-18.48,4.075-25.927,5.907l-.9.222c-17.494,4.3-35.584,8.757-49.8,17.455a83.965,83.965,0,0,0-14.57,11.44c-1.716,1.654-3.382,3.354-4.991,5-2.752,2.81-5.348,5.463-8.01,7.712-1.438,1.221-2.839,2.293-4.206,3.269v1.245C-863.7-216.382-861.991-217.661-860.23-219.154Z" transform="translate(0)" fill="url(#linear-gradient)"/>
    <path id="Path_218" data-name="Path 218" d="M-390.409-322.873c-16-3.031-31.4-10.01-45.772-20.741-1.409-1.054-2.77-2.118-4.117-3.173-.433-.339-.862-.675-1.293-1.009h-1.687q1.044.807,2.1,1.632c1.355,1.06,2.72,2.13,4.138,3.189,14.533,10.848,30.122,17.907,46.336,20.98a203.826,203.826,0,0,0,23.672,2.572c2.557.177,5.157.362,7.758.576v-.912c-2.563-.21-5.126-.39-7.646-.564A202.98,202.98,0,0,1-390.409-322.873Z" transform="translate(452.449)" fill="url(#linear-gradient)"/>
    <path id="Path_219" data-name="Path 219" d="M-848.064-206.068a86.839,86.839,0,0,0,9.993-10.2c1.554-1.843,3.06-3.8,4.658-5.861,1.972-2.554,4.011-5.194,6.224-7.727A62.9,62.9,0,0,1-814.2-241.393c13.391-8.8,31.326-12.608,48.669-16.287,7.472-1.584,15.762-3.166,25.344-4.833,4.956-.875,10.1-1.586,15.542-2.34,8.226-1.137,16.731-2.315,24.553-4.1,3.713-.851,7.36-1.814,11.472-3.033,6.833-2.024,12.66-4.252,18.83-6.612,3.46-1.324,7.038-2.692,10.965-4.09,9.832-3.5,21.762-7.1,36.469-11.013,1.2-.319,2.372-.647,3.529-.971l.982-.274a220.206,220.206,0,0,0,25.962-9.417c16.018-6.625,31.181-12.893,55.871-12.428,28.108.518,50.488,7.891,77.483,19.619,4.393,1.913,8.777,3.95,13.42,6.108,10.059,4.673,20.459,9.5,31.33,13.2A118.259,118.259,0,0,0-373.23-271.3c23.79-.43,32.961-8.637,42.668-17.324,5.646-5.055,11.487-10.281,20.55-14.307a43.638,43.638,0,0,1,6.382-2.244c7.89-2.114,16.2-2.746,24.244-3.357,10.54-.8,20.5-1.558,28.094-5.581,5.487-2.883,10.405-5.943,15.612-9.182,10.735-6.679,21.836-13.585,38.253-18.8,17.384-5.527,36.367-6.454,59.749-2.925,7.925,1.2,14.769,3.512,21.387,5.75,12.254,4.146,23.83,8.06,40.731,4.719a64.283,64.283,0,0,0,15.36-5.283q1.56-.74,3.1-1.489A100.344,100.344,0,0,1-41.508-347.8h-3.123a124.365,124.365,0,0,0-13.128,5.715c-1.028.5-2.06.994-3.1,1.484a62.837,62.837,0,0,1-15.018,5.174c-16.489,3.26-27.868-.593-39.917-4.668-6.68-2.259-13.586-4.6-21.648-5.813-6.4-.966-12.463-1.59-18.269-1.891h-15.117a108.819,108.819,0,0,0-27.083,4.87c-16.584,5.271-27.754,12.221-38.557,18.942-5.186,3.227-10.086,6.274-15.534,9.138-7.337,3.884-17.137,4.63-27.516,5.419-8.112.616-16.5,1.254-24.532,3.4a45.145,45.145,0,0,0-6.591,2.318c-9.243,4.106-15.152,9.393-20.865,14.507-9.525,8.526-18.523,16.578-41.761,17a116.5,116.5,0,0,1-40.012-6.49c-10.8-3.673-21.163-8.487-31.19-13.145-4.649-2.161-9.042-4.2-13.449-6.122-27.166-11.8-49.7-19.218-78.068-19.742-25.063-.472-40.325,5.853-56.494,12.542a218.542,218.542,0,0,1-25.8,9.359l-.982.274c-1.152.322-2.321.65-3.512.968-14.746,3.922-26.714,7.536-36.583,11.047-3.943,1.4-7.529,2.776-11,4.1-6.143,2.35-11.947,4.57-18.722,6.578-4.084,1.21-7.7,2.165-11.384,3.008-7.753,1.774-16.225,2.947-24.418,4.079-5.458.755-10.613,1.469-15.6,2.347-9.6,1.671-17.908,3.255-25.4,4.845-17.475,3.7-35.543,7.539-49.141,16.478a63.849,63.849,0,0,0-13.209,11.721c-2.229,2.552-4.276,5.2-6.257,7.767-1.591,2.059-3.093,4-4.633,5.833a86.088,86.088,0,0,1-9.883,10.09,131.389,131.389,0,0,1-14.2,10.2c-.719.472-1.444.943-2.165,1.416v1.2q1.495-.975,2.986-1.953A131.858,131.858,0,0,0-848.064-206.068Z" transform="translate(0)" fill="url(#linear-gradient)"/>
    <path id="Path_220" data-name="Path 220" d="M-365.51-316.527a183.135,183.135,0,0,1-22.075-1.572c-18.778-2.9-34.322-11.372-45.77-18.432-1.148-.7-2.279-1.412-3.4-2.115-5.578-3.488-10.872-6.778-17.5-9.151h-3.05c.613.18,1.22.35,1.848.564,6.817,2.338,12.212,5.71,17.923,9.281,1.127.7,2.263,1.413,3.415,2.118,11.553,7.126,27.255,15.681,46.294,18.62a184.308,184.308,0,0,0,22.274,1.592c5.012.156,10.2.314,15.2.76,2.155.191,4.179.442,6.125.744v-.928c-1.9-.29-3.883-.529-5.982-.715C-355.267-316.211-360.473-316.371-365.51-316.527Z" transform="translate(437.403)" fill="url(#linear-gradient)"/>
    <path id="Path_221" data-name="Path 221" d="M73.923-314.89c-5.141-.3-10.428-.251-15.54-.2a167.194,167.194,0,0,1-20.794-.657C21.223-317.687,7.181-324.2-8.174-331.872l-1.14-.567c-7.148-3.56-13.9-6.921-21.911-9.133-15.865-4.377-25.885,1.1-36.489,6.891-1.676.916-3.363,1.837-5.087,2.726a51.832,51.832,0,0,1-14.29,5.166c-15.66,3.012-26.159-1.5-37.279-6.282-6.512-2.8-13.248-5.691-21.418-7.319-22.957-4.571-41.417-3.8-58.09,2.426-14.728,5.5-24.77,13.687-34.482,21.6-4.753,3.874-9.666,7.88-15.005,11.44-7.26,4.862-17.293,5.887-27.911,6.974-7.324.749-14.9,1.524-21.814,3.636a39.1,39.1,0,0,0-6.222,2.483c-8.655,4.389-13.7,9.995-18.577,15.415-8.091,8.993-15.734,17.486-39.139,17.7a108.02,108.02,0,0,1-38.319-6.849c-13.615-4.919-26.227-11.764-38.425-18.385l-3.485-1.888c-23.652-12.772-45.992-24.834-75.343-27.451-24.035-2.154-38.617,5.806-54.058,14.223-7.463,4.069-15.181,8.276-24.161,11.349-1.39.475-2.8.949-4.25,1.407-11.162,3.511-23.656,6.8-35.737,9.97-11.035,2.9-21.087,5.479-32.345,7.655-4.248.82-8.083,1.5-11.723,2.084-7.658,1.227-15.666,2.124-23.411,2.993-5.468.613-10.631,1.191-15.695,1.879-9.981,1.338-17.883,2.54-24.866,3.779-15.409,2.7-34.583,6.058-47.585,15.281a49.847,49.847,0,0,0-11.843,12.006A125.849,125.849,0,0,0-815.2-219.4c-.619,1.09-1.231,2.168-1.846,3.232a96.075,96.075,0,0,1-8.027,12.183A76.02,76.02,0,0,1-837.53-191.8a105.313,105.313,0,0,1-27.82,16.013v1.02a106.562,106.562,0,0,0,28.709-16.413,77.06,77.06,0,0,0,12.616-12.351,97.041,97.041,0,0,0,8.1-12.286c.617-1.065,1.231-2.145,1.85-3.238a125.821,125.821,0,0,1,6.877-11.184,48.945,48.945,0,0,1,11.607-11.775c12.763-9.051,31.759-12.38,47.026-15.054,6.962-1.236,14.844-2.434,24.8-3.768,5.045-.684,10.2-1.262,15.658-1.874,7.766-.871,15.792-1.771,23.488-3,3.657-.584,7.507-1.27,11.771-2.093,11.307-2.185,21.385-4.768,32.447-7.677,12.1-3.181,24.609-6.468,35.806-9.991,1.459-.462,2.884-.939,4.283-1.418,9.092-3.112,16.86-7.345,24.373-11.44,15.242-8.31,29.652-16.158,53.194-14.055,29.037,2.589,51.252,14.586,74.773,27.285l3.481,1.886c12.241,6.644,24.9,13.514,38.613,18.469a109.442,109.442,0,0,0,38.866,6.938c24.045-.222,31.861-8.906,40.134-18.1,4.813-5.348,9.792-10.879,18.25-15.17a37.968,37.968,0,0,1,6-2.393c6.767-2.068,14.263-2.836,21.515-3.577,10.812-1.105,21.02-2.148,28.56-7.2,5.381-3.589,10.316-7.612,15.09-11.5,9.637-7.855,19.6-15.98,34.13-21.405,16.389-6.123,34.575-6.874,57.23-2.361,8.014,1.6,14.678,4.46,21.122,7.23,11.342,4.872,22.05,9.477,38.193,6.374a53.192,53.192,0,0,0,14.678-5.3c1.734-.892,3.431-1.82,5.116-2.74,10.331-5.645,20.084-10.978,35.346-6.77,7.878,2.173,14.57,5.507,21.656,9.036l1.14.567c15.478,7.735,29.64,14.3,46.253,16.262a168.484,168.484,0,0,0,21,.669c5.087-.049,10.343-.1,15.428.2a76.038,76.038,0,0,1,10.42,1.287,41.842,41.842,0,0,1,8.926,2.854v-1.071a43.581,43.581,0,0,0-8.611-2.657A77.25,77.25,0,0,0,73.923-314.89Z" transform="translate(0 2.426)" fill="url(#linear-gradient)"/>
    <path id="Path_222" data-name="Path 222" d="M86.206-296.087a51.918,51.918,0,0,0-16.118-6.262c-8.481-1.751-17.189-1.973-25.61-2.189A173.719,173.719,0,0,1,25.51-305.7c-13.161-1.792-24.665-7.062-36.844-12.639-9.8-4.489-19.928-9.13-31-11.782-16.091-3.853-25.734,1.658-35.942,7.5-5.636,3.223-11.466,6.556-18.552,8.248a52.8,52.8,0,0,1-7.958,1.327c-9.237.761-15.675-1.94-23.125-5.063-1.639-.687-3.323-1.393-5.089-2.082a93.075,93.075,0,0,0-16.677-5.032c-13.356-2.606-23.923-3.287-33.257-2.147a62.512,62.512,0,0,0-21.66,6.76,66.022,66.022,0,0,0-15.544,11.65c-3.2,3.141-6.274,6.582-9.249,9.91-5.544,6.2-11.278,12.61-18.289,17.74-7.919,5.829-19,6.475-29.72,7.1-8.42.49-16.375.952-22.788,3.765-7.774,3.408-12.177,8.174-16.433,12.782-7.349,7.957-14.292,15.472-37.476,16.45-2.318.1-4.709.131-7.1.1-27.066-.381-50.792-12.312-70.43-23.933-2.542-1.5-5.087-3.044-7.656-4.6l-4-2.418c-17.9-10.791-38.19-23.022-63.4-26.83-22.091-3.338-35.653,5.476-50.011,14.809-6.736,4.38-13.7,8.908-21.631,12.063-27.058,10.706-66.645,14-101.572,16.9-14.593,1.211-28.378,2.356-40.716,3.95-14.415,1.883-32.358,4.226-44.276,12.618q-1.016.714-1.952,1.47c-8.046,6.473-11.858,14.968-15.546,23.182a103.458,103.458,0,0,1-6.589,12.992,57.912,57.912,0,0,1-27.333,23.108c-14.369,6.108-31.146,7.649-49.035,8.392v.9c17.632-.744,35.12-2.338,49.636-8.507a58.949,58.949,0,0,0,27.835-23.512,104.386,104.386,0,0,0,6.641-13.089c3.647-8.125,7.418-16.526,15.285-22.854q.907-.733,1.894-1.429c11.655-8.2,29.4-10.52,43.652-12.383,12.3-1.589,26.065-2.732,40.64-3.942,35.035-2.91,74.746-6.209,102.009-17,8.054-3.206,15.074-7.767,21.861-12.18,14.122-9.181,27.468-17.853,48.967-14.6,24.915,3.765,45.084,15.92,62.876,26.647l4,2.417c2.569,1.557,5.12,3.1,7.664,4.606,19.8,11.714,43.735,23.743,71.166,24.13,2.428.034,4.846,0,7.194-.1,23.78-1,31.216-9.056,38.41-16.842,4.181-4.528,8.5-9.208,16.047-12.516,6.17-2.7,13.988-3.159,22.265-3.64,10.936-.637,22.245-1.295,30.479-7.356,7.1-5.2,12.869-11.645,18.447-17.882,2.967-3.318,6.033-6.747,9.206-9.865A65,65,0,0,1-203.9-319.876a61.127,61.127,0,0,1,21.157-6.605c9.16-1.122,19.564-.444,32.752,2.13A91.888,91.888,0,0,1-133.57-319.4c1.753.686,3.427,1.387,5.058,2.071,7.635,3.2,14.23,5.96,23.855,5.174a54.315,54.315,0,0,0,8.2-1.365c7.291-1.74,13.2-5.123,18.923-8.393,9.95-5.687,19.342-11.059,34.828-7.353,10.934,2.62,21,7.231,30.74,11.693,11.738,5.377,23.875,10.936,37.262,12.759a177.483,177.483,0,0,0,19.143,1.176c8.352.214,16.988.436,25.328,2.158a50.546,50.546,0,0,1,15.689,6.1,53.46,53.46,0,0,1,7.72,5.594v-1.365A53.138,53.138,0,0,0,86.206-296.087Z" transform="translate(0 8.871)" fill="url(#linear-gradient)"/>
    <path id="Path_223" data-name="Path 223" d="M69.2-290.7a206.494,206.494,0,0,0-24.725-3.725c-6.622-.721-12.877-1.4-18.809-2.592-12.015-2.414-22.551-7.863-33.7-13.632-9.923-5.134-20.185-10.443-31.734-13.533-16.7-4.466-27.466,1.185-38.858,7.17-5.238,2.749-10.652,5.594-16.723,7.388a73.132,73.132,0,0,1-7.583,1.879c-8.412,1.521-13.77-.026-20.554-1.988-1.614-.467-3.3-.956-5.112-1.426a138.245,138.245,0,0,0-16.623-3.445c-10.381-1.413-22.473-2.6-33.473-.633a57.083,57.083,0,0,0-20.643,7.985A65.1,65.1,0,0,0-213.477-294.8c-2.078,2.356-4.059,4.779-6.158,7.344-6.116,7.479-12.444,15.216-21,20.8-8.93,5.83-20.612,5.6-31.906,5.372-7.318-.143-14.234-.282-19.82,1.308-7.733,2.2-12.249,5.775-17.036,9.56-7.668,6.065-15.6,12.334-38,14.182-2.283.188-4.674.344-7.1.461-28.1,1.359-52.241-9.173-72.15-19.653-3.224-1.7-6.392-3.437-9.744-5.282l-4.231-2.326c-19.286-10.612-39.229-21.587-63.526-24.93-21.033-2.9-34.246,5.114-48.242,13.59-6.527,3.953-13.277,8.04-20.892,10.913-26.761,10.1-65.238,13.226-99.189,15.985-13.176,1.071-25.62,2.082-36.922,3.429-13.773,1.678-30.916,3.767-42.523,11.147q-.991.636-1.912,1.3c-8,5.786-12.146,13.388-16.159,20.741a102.468,102.468,0,0,1-6.829,11.314,58.712,58.712,0,0,1-26.967,20.578c-16.045,6.3-35.812,7.33-54.926,8.33-2.2.116-4.415.234-6.632.359v.906c2.246-.125,4.49-.247,6.717-.362,19.24-1.006,39.138-2.048,55.409-8.432a59.816,59.816,0,0,0,27.472-20.951,103.586,103.586,0,0,0,6.883-11.4c3.966-7.265,8.068-14.778,15.88-20.431q.895-.65,1.856-1.264c11.348-7.216,28.305-9.281,41.928-10.942,11.267-1.342,23.7-2.353,36.858-3.421,34.053-2.766,72.649-5.9,99.608-16.076,7.73-2.917,14.531-7.037,21.109-11.021,13.772-8.339,26.784-16.216,47.251-13.4,24.022,3.306,43.849,14.216,63.023,24.768l4.233,2.327c3.359,1.845,6.531,3.589,9.763,5.291,20.084,10.572,44.485,21.2,72.933,19.816,2.451-.117,4.859-.273,7.159-.464,22.85-1.882,31.3-8.566,38.754-14.461,4.687-3.706,9.11-7.206,16.584-9.335,5.36-1.526,12.156-1.392,19.352-1.248,10.994.22,23.453.468,32.741-5.6,8.7-5.676,15.074-13.473,21.24-21.011,2.093-2.558,4.069-4.975,6.135-7.316a64.082,64.082,0,0,1,13.9-12.254,55.657,55.657,0,0,1,20.14-7.8c10.783-1.922,22.717-.754,32.971.644a137,137,0,0,1,16.441,3.408c1.8.469,3.471.951,5.072,1.415,6.709,1.94,12.5,3.619,21.283,2.024a74.574,74.574,0,0,0,7.745-1.916c6.205-1.834,11.68-4.71,16.974-7.49,11.127-5.846,21.633-11.368,37.747-7.057,11.4,3.05,21.592,8.324,31.45,13.424,11.243,5.815,21.861,11.308,34.084,13.761,6,1.205,12.289,1.891,18.948,2.615a205.669,205.669,0,0,1,24.536,3.693,82.938,82.938,0,0,1,16.186,5.71,65.855,65.855,0,0,1,8.153,4.479v-1.188a67.067,67.067,0,0,0-7.511-4.059A84.461,84.461,0,0,0,69.2-290.7Z" transform="translate(0 11.912)" fill="url(#linear-gradient)"/>
    <path id="Path_224" data-name="Path 224" d="M83.22-274.344c-4.386-1.52-9.359-3.243-14.914-4.7-7.5-1.954-15.013-3.426-22.282-4.848-7.225-1.415-14.048-2.753-20.2-4.434-10.913-2.982-20.488-8.561-30.626-14.47-10.012-5.833-20.363-11.865-32.41-15.436-17.612-5.223-30.363,1.062-42.691,7.139a132.674,132.674,0,0,1-13.973,6.232c-2.459.874-5,1.779-7.217,2.435-7.973,2.367-12.347,1.769-18.969.862-1.3-.177-2.673-.367-4.167-.544-1.154-.137-2.374-.291-3.661-.455-3.775-.481-8.052-1.023-12.886-1.409-11.3-.9-23.2-1.575-33.688.88a51.714,51.714,0,0,0-19.622,9.21,65.983,65.983,0,0,0-12.72,13.248c-1.194,1.578-2.385,3.21-3.595,4.867-6.421,8.8-13.062,17.9-23.189,23.768-10.171,5.9-23.162,4.486-34.623,3.241-6.013-.653-11.692-1.27-16.29-.735-8.24.96-13.145,3.609-18.826,6.678-7.82,4.224-16.684,9.011-37.374,11.566q-3.556.439-7.1.826c-29.389,3.232-54.913-6.516-73.874-15.373-3.875-1.809-7.708-3.727-11.765-5.755l-.966-.482q-2.657-1.334-5.3-2.674c-18.867-9.537-38.377-19.4-61.913-22.319-19.974-2.48-32.874,4.737-46.532,12.377-6.3,3.525-12.819,7.17-20.086,9.76-26.445,9.429-63.7,12.391-96.57,15-11.856.943-23.055,1.834-33.367,2.973-13.112,1.447-29.428,3.247-40.766,9.679q-.972.55-1.877,1.131c-7.962,5.1-12.465,11.805-16.818,18.291a105.905,105.905,0,0,1-7.02,9.643,60.663,60.663,0,0,1-26.608,18.052c-14.487,5.2-31.948,6.484-48.834,7.721-8.4.616-16.972,1.256-25.247,2.369v.922c8.3-1.125,16.924-1.771,25.367-2.389,16.992-1.247,34.56-2.535,49.244-7.807a61.793,61.793,0,0,0,27.106-18.385,106.091,106.091,0,0,0,7.08-9.722c4.5-6.7,8.746-13.029,16.524-18.009q.877-.562,1.819-1.1c11.091-6.29,27.236-8.071,40.209-9.5,10.287-1.136,21.476-2.027,33.319-2.968,32.967-2.622,70.333-5.593,96.964-15.09,7.376-2.629,13.942-6.3,20.291-9.853,13.449-7.519,26.154-14.618,45.6-12.206,23.272,2.887,41.806,12.255,61.43,22.174q2.648,1.339,5.306,2.675l.966.482c4.067,2.033,7.907,3.953,11.8,5.772,19.137,8.939,44.927,18.781,74.7,15.5q3.555-.391,7.123-.828c20.972-2.591,30.352-7.656,37.888-11.727,5.553-3,10.35-5.59,18.3-6.516,4.413-.515,10.006.092,15.925.737,11.7,1.271,24.963,2.714,35.549-3.423,10.327-5.987,17.027-15.17,23.509-24.048,1.208-1.654,2.4-3.281,3.586-4.856a64.961,64.961,0,0,1,12.523-13.054,50.437,50.437,0,0,1,19.124-8.986c10.258-2.4,22.023-1.731,33.191-.841,4.8.382,9.054.923,12.811,1.4,1.291.165,2.518.321,3.676.458,1.484.176,2.847.364,4.136.541,6.581.9,11.34,1.554,19.642-.912,2.248-.667,4.811-1.578,7.291-2.458a134.891,134.891,0,0,0,14.12-6.294c12.62-6.225,24.545-12.1,41.566-7.054,11.885,3.523,22.166,9.515,32.111,15.31C4.66-296.127,14.309-290.5,25.4-287.473c6.21,1.7,13.062,3.039,20.316,4.459s14.734,2.887,22.189,4.828c5.5,1.439,10.441,3.152,14.8,4.664l1.89.653c3.4,1.171,6.119,2.2,8.574,3.227v-1.037c-2.323-.956-4.9-1.922-8.064-3.011Z" transform="translate(0 14.948)" fill="url(#linear-gradient)"/>
    <path id="Path_225" data-name="Path 225" d="M73.374-265.577c-1.919-.578-3.9-1.174-5.959-1.768-4.024-1.156-8.054-2.283-12.02-3.389-10.836-3.027-21.072-5.886-29.418-8.852-9.838-3.494-18.465-9.151-27.6-15.139-10.061-6.593-20.463-13.413-33.029-17.515-19.041-6.214-33.752.849-47.985,7.683-3.195,1.533-6.5,3.121-9.765,4.5-1.585.667-3.04,1.316-4.395,1.919q-1.284.571-2.453,1.082c-8.466,3.665-11.82,3.773-19.924,4.032l-.7.022c-3.131.1-6.839-.014-11.139-.143-1.693-.052-3.464-.106-5.315-.151l-.342-.009c-11.5-.276-23.386-.563-33.562,2.4a46.307,46.307,0,0,0-18.6,10.438,66.274,66.274,0,0,0-11.307,14.043l-1.517,2.381c-6.164,9.708-13.151,20.71-24.891,26.748s-26.241,2.936-37.9.447a94.621,94.621,0,0,0-12.179-2.1c-9.9-.673-15.345,1.218-23.6,4.078a182.34,182.34,0,0,1-33.788,8.647q-3.549.59-7.1,1.193c-23.819,4.083-47.137.663-75.6-11.093-4.219-1.743-8.332-3.6-13.267-5.849-2.866-1.312-5.71-2.64-8.547-3.964-19.36-9.039-37.646-17.577-60.576-20.109-18.913-2.1-31.513,4.343-44.848,11.153a139.461,139.461,0,0,1-19.255,8.614c-26.44,8.835-62.874,11.647-95.017,14.126-10.159.783-19.752,1.523-28.746,2.417-13.13,1.305-28.009,2.783-39,8.207-.634.313-1.243.635-1.838.963-7.959,4.408-12.836,10.216-17.552,15.834-2.225,2.651-4.527,5.393-7.136,7.974a64.521,64.521,0,0,1-26.252,15.53c-12.836,4.153-27.969,5.579-42.6,6.957-13.393,1.261-27.242,2.565-39.3,5.961-1.624.458-3.187.991-4.709,1.569v1.036c1.659-.652,3.359-1.256,5.141-1.758,11.918-3.358,25.694-4.656,39.017-5.91,14.719-1.386,29.94-2.819,42.935-7.025a65.71,65.71,0,0,0,26.739-15.815c2.642-2.614,4.956-5.371,7.2-8.039,4.871-5.8,9.471-11.283,17.245-15.586.578-.321,1.171-.632,1.786-.935,10.76-5.309,25.494-6.773,38.493-8.065,8.974-.892,18.561-1.632,28.709-2.413,32.236-2.487,68.771-5.306,95.389-14.2a140.643,140.643,0,0,0,19.447-8.692c13.132-6.707,25.529-13.041,43.98-11.006,22.676,2.506,40.859,10.995,60.108,19.981q4.258,1.99,8.559,3.97c4.948,2.253,9.069,4.115,13.308,5.867,28.746,11.873,52.33,15.324,76.464,11.186q3.549-.61,7.09-1.191a183.745,183.745,0,0,0,34.038-8.712c8.074-2.8,13.408-4.656,22.974-4a93.127,93.127,0,0,1,11.955,2.067c11.9,2.54,26.716,5.7,38.922-.573,12.011-6.177,19.07-17.3,25.3-27.106l1.515-2.38a65.551,65.551,0,0,1,11.145-13.854,45.073,45.073,0,0,1,18.107-10.173c9.945-2.894,21.71-2.612,33.079-2.338l.34.008c1.848.043,3.618.1,5.306.149,4.326.133,8.064.251,11.24.145l.7-.023c8.074-.257,11.758-.376,20.486-4.153.783-.339,1.6-.7,2.466-1.087,1.345-.6,2.793-1.244,4.37-1.908,3.294-1.4,6.616-2.991,9.825-4.533,13.957-6.7,28.39-13.633,46.833-7.613,12.395,4.046,22.725,10.818,32.714,17.364,9.2,6.032,17.894,11.73,27.883,15.278,8.394,2.982,18.652,5.849,29.515,8.883,3.96,1.107,7.988,2.232,12.007,3.386,2.049.592,4.028,1.187,5.942,1.762,4,1.2,7.776,2.338,11.263,3.158,3.674.865,6.5,1.389,8.99,1.845v-.932c-2.408-.442-5.126-.952-8.624-1.775C81.107-263.253,77.35-264.383,73.374-265.577Z" transform="translate(0 17.945)" fill="url(#linear-gradient)"/>
    <path id="Path_226" data-name="Path 226" d="M83.985-251.173c-5.337-.715-11.3-2.517-17.463-4.459a390.533,390.533,0,0,1-40.387-15.2c-8.777-3.941-16.476-9.612-24.623-15.618-10.072-7.424-20.486-15.1-33.605-19.789-21.5-7.684-39.784,1.469-55.914,9.548l-2.917,1.458c-2.453,1.211-4.562,2.432-6.473,3.571l-1.527.912c-6.79,4.053-9.077,5.42-16.6,6.889-4.229.824-9.91,1.057-16.354,1.256l-3.253.094c-10.658.3-21.679.6-30.862,3.81a42.088,42.088,0,0,0-17.577,11.668c-4.291,4.633-7.357,10.087-9.9,14.835-5.6,10.468-12.56,23.5-26.036,29.624-13.708,6.236-29.841.707-41.618-3.326-2.779-.952-5.4-1.851-7.614-2.452-13.358-3.633-19.864-2.022-35.58,1.866-5.951,1.473-13.36,3.307-23,5.315-2.482.516-4.8,1.026-7.095,1.56-24.723,5.742-48.571,3.637-77.326-6.818-4.3-1.564-8.63-3.314-13.8-5.459-3.9-1.624-7.791-3.312-11.558-4.944-19.041-8.25-37.028-16.044-59.474-18.214-17.864-1.721-30.176,3.935-43.2,9.927a150.668,150.668,0,0,1-18.383,7.473c-26.79,8.305-62.8,10.964-94.565,13.31-8.083.6-15.718,1.16-23.026,1.8-12.481,1.09-26.627,2.324-37.235,6.736-.617.257-1.214.522-1.8.794-8,3.714-13.294,8.624-18.411,13.374-2.248,2.088-4.575,4.247-7.125,6.3a71.621,71.621,0,0,1-25.9,13.012c-11.048,3.156-23.784,4.607-36.1,6.007-14.143,1.609-28.769,3.275-40.936,7.536a51.9,51.9,0,0,0-22.1,15.188v1.643c5.913-6.961,13.012-12.647,22.617-16.013,12.007-4.206,26.544-5.86,40.6-7.459,12.382-1.409,25.183-2.867,36.355-6.058a72.919,72.919,0,0,0,26.362-13.243c2.576-2.081,4.915-4.252,7.177-6.353,5.288-4.906,10.279-9.538,18.107-13.172.566-.262,1.148-.521,1.749-.771,10.395-4.326,23.809-5.5,36.781-6.629,7.3-.637,14.929-1.2,23.005-1.8,31.853-2.353,67.954-5.018,94.913-13.376a151.8,151.8,0,0,0,18.552-7.539c12.84-5.9,24.965-11.483,42.409-9.8,22.2,2.145,40.086,9.894,59.02,18.1,3.771,1.634,7.67,3.323,11.576,4.95,5.19,2.155,9.533,3.91,13.859,5.483,29.053,10.565,53.179,12.682,78.223,6.869,2.281-.53,4.589-1.039,7.059-1.553,9.668-2.013,17.09-3.851,23.055-5.326,15.88-3.933,21.818-5.4,34.778-1.877,2.165.589,4.768,1.481,7.523,2.424,12.03,4.12,28.5,9.76,42.763,3.277,13.82-6.286,20.869-19.47,26.532-30.062,2.513-4.7,5.549-10.1,9.767-14.658a40.948,40.948,0,0,1,17.092-11.361c8.957-3.127,19.854-3.431,30.39-3.723l3.257-.094c6.516-.2,12.266-.438,16.613-1.287,7.77-1.517,10.3-3.025,17.048-7.059l1.527-.909c1.89-1.127,3.97-2.332,6.386-3.526l2.923-1.459c15.859-7.942,33.833-16.947,54.706-9.483C-19.686-300.8-9.345-293.175.656-285.8c8.2,6.046,15.948,11.754,24.849,15.749A392.173,392.173,0,0,0,66.05-254.8c6.222,1.962,12.258,3.784,17.72,4.516a45.769,45.769,0,0,0,9.4.327v-.908A43.925,43.925,0,0,1,83.985-251.173Z" transform="translate(0 20.926)" fill="url(#linear-gradient)"/>
    <path id="Path_227" data-name="Path 227" d="M83.421-239.877c-6.044-.24-12.682-2.276-17.792-4.022-11.524-3.922-24.76-10.028-39.34-18.147-7.718-4.3-14.493-9.917-21.667-15.866-10.049-8.335-20.442-16.954-34.154-22.3-22.922-8.926-45.169,1.332-59.913,9.823a48.98,48.98,0,0,0-6.087,4.147c-2.385,1.888-4.071,3.5-5.561,4.912-2.909,2.769-5.012,4.77-10.066,6.649-4.316,1.606-10.368,2.292-16.263,2.793-1.782.153-3.6.288-5.431.427-10.057.755-20.457,1.538-28.9,4.986a38.456,38.456,0,0,0-16.549,12.9c-3.587,4.7-5.967,9.859-8.489,15.629-5.453,12.488-12.339,24.779-25.663,30.119-16.3,6.539-34.687-2.868-45.67-8.489-.978-.5-1.9-.969-2.745-1.393-17.9-8.931-25.106-7.117-59.745,1.614-2.368.6-4.753,1.247-7.086,1.928-25.614,7.485-49.995,6.7-79.058-2.54-5.07-1.614-10.093-3.469-14.336-5.07-4.869-1.848-9.7-3.8-14.365-5.682-18.778-7.581-36.512-14.741-58.577-16.558-16.826-1.39-28.879,3.508-41.628,8.692a167.868,167.868,0,0,1-17.44,6.337c-27.833,7.9-64.187,10.4-96.262,12.607-5.188.356-10.26.7-15.158,1.066l-.584.043c-12.164.9-24.743,1.828-34.873,5.223-.6.2-1.185.411-1.759.623-8.141,3.025-13.667,6.864-19.516,10.931-2.188,1.52-4.453,3.095-6.862,4.617a84.9,84.9,0,0,1-25.566,10.5c-9.046,2.219-19.238,3.551-29.1,4.839-15.142,1.979-30.8,4.025-43.082,9.335-16.534,7.149-23.511,21.4-30.9,36.479-2.648,5.409-5.371,10.945-8.595,16.273v2.158a187.118,187.118,0,0,0,9.738-18.121c7.308-14.925,14.21-29.022,30.363-36.006,12.094-5.229,27.644-7.262,42.682-9.227,9.9-1.293,20.136-2.631,29.267-4.87a86.219,86.219,0,0,0,25.974-10.668c2.43-1.537,4.7-3.118,6.9-4.647,5.783-4.018,11.244-7.815,19.228-10.78q.836-.312,1.714-.607c9.952-3.335,22.429-4.257,34.5-5.149l.586-.043c4.894-.361,9.962-.709,15.146-1.066,32.153-2.21,68.6-4.716,96.587-12.662a168.292,168.292,0,0,0,17.587-6.388c12.577-5.114,24.449-9.941,40.913-8.587,21.824,1.8,39.459,8.919,58.129,16.455,4.674,1.888,9.508,3.841,14.394,5.693,4.26,1.609,9.305,3.472,14.409,5.1,29.38,9.344,54.045,10.132,79.98,2.551,2.316-.678,4.683-1.322,7.032-1.914,34.171-8.614,41.28-10.4,58.678-1.718.845.422,1.759.889,2.733,1.387,11.213,5.738,29.977,15.338,46.936,8.54,13.7-5.491,20.714-17.97,26.246-30.637,2.5-5.721,4.859-10.836,8.387-15.461a37.412,37.412,0,0,1,16.078-12.55c8.224-3.36,18.5-4.132,28.432-4.879,1.84-.139,3.659-.274,5.445-.427,6.007-.512,12.183-1.214,16.671-2.882,5.3-1.971,7.474-4.039,10.48-6.9,1.473-1.4,3.141-2.99,5.489-4.85a47.806,47.806,0,0,1,5.946-4.049c14.477-8.341,36.3-18.423,58.6-9.737,13.52,5.265,23.838,13.823,33.817,22.1,7.212,5.983,14.025,11.634,21.841,15.987,14.649,8.157,27.959,14.3,39.562,18.244,5.207,1.782,11.984,3.856,18.235,4.1a26.371,26.371,0,0,0,9.815-1.332v-1A25.029,25.029,0,0,1,83.421-239.877Z" transform="translate(0 23.887)" fill="url(#linear-gradient)"/>
    <path id="Path_228" data-name="Path 228" d="M64.736-232.138c-14.176-5.2-27.914-14-38.3-21.094-6.651-4.543-12.511-10.024-18.712-15.826-10-9.353-20.338-19.024-34.7-25.1-21.6-9.127-45.664-1.518-60.988,8.644a33.178,33.178,0,0,0-5.7,4.724,38.384,38.384,0,0,0-5.368,7.227c-1.877,3.064-3.5,5.709-7.747,8.1-4.308,2.427-10.6,3.545-16.2,4.32-2.316.32-4.7.6-7.115.892-9.612,1.148-19.551,2.335-27.418,6.029a35.43,35.43,0,0,0-15.523,14.123c-3.143,5.066-5.109,10.739-7.012,16.225l-.066.194c-3.68,10.622-10.306,25.351-25.3,30.618-13.356,4.7-28.941.123-47.63-13.978-17.427-13.154-27.665-13.82-60.876-3.964-2.333.694-4.716,1.466-7.078,2.3-26.471,9.321-51.385,9.856-80.79,1.738-4.264-1.177-8.99-2.668-14.87-4.684-5.8-2-11.493-4.149-17-6.229-18.559-7.008-36.088-13.625-57.852-15.1-15.857-1.07-27.659,3.073-40.165,7.459-5.244,1.839-10.669,3.74-16.379,5.2-30.617,7.823-70.9,10.207-103.265,12.121l-3.831.227c-10.973.644-22.321,1.31-31.832,3.688-.582.145-1.152.3-1.716.453-8.518,2.347-14.7,5.362-21.242,8.552-1.941.946-3.906,1.9-5.967,2.862a112.015,112.015,0,0,1-25.245,7.983c-6.686,1.35-14.029,2.389-21.132,3.4-16.582,2.347-33.729,4.775-46.2,11.415-14,7.456-19.023,20.314-24.339,33.927-3.373,8.637-6.861,17.566-12.834,25.543A100.483,100.483,0,0,1-854.93-99.8l-1.046,1.063a70.1,70.1,0,0,0-9.374,11.275v2.253c.01-.022.019-.042.029-.062,2-3.69,5.283-7.8,10.327-12.933l1.046-1.06a101.2,101.2,0,0,0,9.365-10.441c6.04-8.065,9.548-17.045,12.94-25.73,5.257-13.459,10.221-26.171,23.877-33.445,12.251-6.524,29.264-8.933,45.718-11.261,7.125-1.009,14.491-2.051,21.221-3.411a113.425,113.425,0,0,0,25.57-8.09c2.07-.96,4.044-1.923,5.99-2.873,6.487-3.163,12.61-6.149,21-8.461.551-.151,1.108-.3,1.68-.444,9.367-2.341,20.639-3,31.539-3.643l3.831-.227c32.437-1.919,72.8-4.306,103.563-12.169,5.775-1.473,11.228-3.387,16.505-5.237,12.355-4.334,24.022-8.416,39.537-7.378,21.53,1.455,38.957,8.036,57.408,15,5.518,2.084,11.222,4.237,17.042,6.243,5.911,2.028,10.662,3.523,14.958,4.71,29.733,8.21,54.942,7.664,81.735-1.768,2.339-.823,4.7-1.587,7.007-2.275,34.56-10.26,43.271-8.533,59.557,3.757,19.1,14.415,35.132,19.044,49.021,14.163,15.455-5.431,22.216-20.413,25.956-31.21l.068-.2c1.887-5.446,3.839-11.079,6.937-16.071a34.439,34.439,0,0,1,15.067-13.736c7.656-3.6,17.471-4.767,26.962-5.9,2.422-.288,4.819-.575,7.144-.9,5.733-.792,12.2-1.947,16.708-4.486,4.494-2.532,6.174-5.274,8.12-8.449a37.614,37.614,0,0,1,5.252-7.076,32.256,32.256,0,0,1,5.514-4.574c15.009-9.953,38.543-17.428,59.579-8.532,14.16,5.984,24.422,15.586,34.349,24.871,6.232,5.83,12.121,11.338,18.842,15.93,10.443,7.131,24.267,15.991,38.58,21.239,7.517,2.768,13.489,3.938,18.743,3.686a20.223,20.223,0,0,0,10.231-3.17V-232a19.4,19.4,0,0,1-10.31,3.454C77.8-228.306,72.054-229.444,64.736-232.138Z" transform="translate(0 26.818)" fill="url(#linear-gradient)"/>
    <path id="Path_229" data-name="Path 229" d="M82.309-217.145c-5.273.689-11.311-.351-18.467-3.172-14.064-5.525-27.3-15.749-37.252-24.038a183.383,183.383,0,0,1-15.753-15.424c-9.914-10.5-20.164-21.364-35.25-28.26-21.4-9.785-47.425-3.651-62.064,7.464a26.347,26.347,0,0,0-5.29,5.3,30.013,30.013,0,0,0-4.362,9.094c-1.264,3.762-2.356,7.011-6.235,10.008-3.326,2.568-8.155,4.315-16.149,5.844-2.727.521-5.5.969-8.439,1.443-9.287,1.5-18.888,3.044-26.3,6.988-6.359,3.383-10.965,8.261-14.5,15.35-2.5,5.081-3.953,10.648-5.36,16.031l-.311,1.181c-4.448,16.947-12.84,27.417-24.934,31.119-21.215,6.488-41.247-12.2-46.882-18.084-15.641-16.333-27.706-21.271-61.973-9.534-2.323.8-4.7,1.694-7.063,2.665C-341.942-191.8-366.623-190-396.8-197.159c-4.552-1.079-9.593-2.484-15.407-4.3-6.682-2.087-13.18-4.391-19.462-6.618-18.389-6.519-35.76-12.676-57.3-13.792-14.939-.774-27.128,2.79-38.932,6.237-4.863,1.418-9.889,2.887-15.088,4.055-32.329,7.264-72.028,9.645-99.079,10.805l-4.018.166c-9.481.385-19.284.786-27.868,2.162-.565.091-1.123.188-1.672.285a200.752,200.752,0,0,0-25.222,6.425l-2.814.855a183.238,183.238,0,0,1-24.938,5.466c-3.613.561-7.285,1.073-11.172,1.614-18.888,2.631-38.419,5.349-51.31,13.837-11.854,7.8-15.192,19.653-18.724,32.2-2.652,9.421-5.4,19.163-11.96,27.664a80.5,80.5,0,0,1-10.6,10.747A143.194,143.194,0,0,0-844.707-87.4c-3.383,3.845-4.956,7.233-5.433,11.69-.431,4.046.454,8.506,1.482,13.669.219,1.111.447,2.255.669,3.432,1.345,7.16,2.708,20.733-3.288,31.2a27.5,27.5,0,0,1-9.249,9.58c-1.558,1.265-3.187,2.521-4.823,3.776v1.312c1.939-1.475,3.837-2.95,5.665-4.437a28.348,28.348,0,0,0,9.527-9.876c6.112-10.668,4.736-24.427,3.373-31.68-.222-1.181-.45-2.326-.669-3.44-1.017-5.109-1.892-9.521-1.473-13.465.46-4.292,1.977-7.556,5.238-11.266a142.879,142.879,0,0,1,12.254-11.865,81.169,81.169,0,0,0,10.72-10.876c6.659-8.624,9.423-18.437,12.094-27.927,3.491-12.4,6.788-24.1,18.341-31.708,12.641-8.321,32-11.018,50.728-13.624,3.893-.543,7.571-1.054,11.2-1.618a184.631,184.631,0,0,0,25.15-5.514l2.816-.854a196.571,196.571,0,0,1,25.04-6.384c.541-.1,1.09-.191,1.647-.28,8.491-1.362,18.246-1.758,27.679-2.144l4.022-.166c27.112-1.162,66.91-3.551,99.359-10.842,5.248-1.179,10.3-2.654,15.184-4.079,12.214-3.566,23.757-6.94,38.4-6.175,21.313,1.1,38.58,7.225,56.863,13.706,6.3,2.232,12.809,4.54,19.516,6.635,5.849,1.822,10.921,3.236,15.507,4.324,30.533,7.242,55.5,5.425,83.486-6.085,2.339-.962,4.687-1.848,6.982-2.635,33-11.3,44.535-7.408,60.475,9.238,5.764,6.021,26.287,25.147,48.335,18.394,12.5-3.824,21.134-14.518,25.668-31.782l.309-1.182c1.4-5.348,2.843-10.878,5.308-15.889,3.442-6.912,7.911-11.654,14.063-14.928,7.208-3.834,16.688-5.362,25.852-6.838,2.82-.455,5.735-.925,8.485-1.45,8.228-1.574,13.23-3.4,16.723-6.094,4.1-3.17,5.288-6.69,6.539-10.417a29.434,29.434,0,0,1,4.243-8.877,25.448,25.448,0,0,1,5.1-5.1c13.951-10.594,39.919-16.762,60.557-7.327C-10.18-280.469,0-269.687,9.842-259.259a183.755,183.755,0,0,0,15.84,15.506c10.024,8.347,23.355,18.645,37.592,24.236,7.4,2.917,13.7,3.987,19.244,3.263a18.182,18.182,0,0,0,10.654-5.225v-1.46C90.4-220.232,87.509-217.823,82.309-217.145Z" transform="translate(0 29.691)" fill="url(#linear-gradient)"/>
    <path id="Path_230" data-name="Path 230" d="M81.762-205.757c-5.52,1.14-11.678.245-18.816-2.753-10.841-4.54-23.026-13.618-36.216-26.981-4.486-4.543-8.512-9.406-12.774-14.553C4.164-261.871-5.961-274.1-21.853-281.937c-21.3-10.5-49.845-5.229-63.137,6.285a22.347,22.347,0,0,0-4.879,5.867c-2.078,3.665-2.617,7.257-3.137,10.731-.653,4.361-1.268,8.479-4.927,12.143-3.151,3.155-8.124,5.431-16.122,7.376-3.052.743-6.338,1.4-9.517,2.042-9.04,1.817-18.387,3.7-25.434,7.894-6.268,3.736-10.544,9-13.462,16.577a87.836,87.836,0,0,0-3.862,15.766l-.408,2.235c-2.223,12.05-8.29,27.319-24.572,31.622-18.586,4.916-36.475-8.886-46.155-22.194-14.572-20.04-28.941-28.379-63.046-15.1-2.313.9-4.685,1.923-7.047,3.033-28.459,13.371-53.662,16.45-84.269,10.293-4.867-.98-10.082-2.258-15.942-3.91-7.515-2.124-14.755-4.542-21.756-6.88-18.273-6.1-35.53-11.869-56.921-12.614-14.189-.5-26.4,2.319-38.22,5.041-4.3.993-8.754,2.017-13.271,2.879-27.479,5.248-60.475,8.575-92.911,9.372-2.909.072-5.845.122-8.775.171-7.14.122-14.522.247-21.314.7l-1.627.116c-10.151.738-18.778,1.681-28.85,3.152-7.834,1.145-16.13,2.044-24.648,2.941-22.075,2.323-44.707,5.479-57.64,16.1-9.97,8.187-11.827,19.315-13.789,31.1-1.668,10.007-3.394,20.354-10.406,29.151a60.469,60.469,0,0,1-10.863,10.082c-2.437,1.879-4.724,3.592-6.867,5.2-2.631,1.97-5.116,3.83-7.333,5.6-5.056,4.032-7.948,7.5-9.668,11.613-2.146,5.12-1.979,11.009-1.564,17.622.661,10.562.651,21.562-3.85,30.467a30.336,30.336,0,0,1-8.12,9.924A183.507,183.507,0,0,1-865.35-4.126v1.262a188.221,188.221,0,0,0,20.114-16.107A31.146,31.146,0,0,0-836.9-29.162c4.579-9.059,4.594-20.171,3.927-30.828-.408-6.525-.574-12.331,1.51-17.312,1.664-3.97,4.473-7.337,9.4-11.264,2.207-1.757,4.685-3.612,7.308-5.576,2.145-1.606,4.438-3.323,6.879-5.206A62.856,62.856,0,0,0-796.849-109.6c7.142-8.959,8.883-19.4,10.565-29.5,1.939-11.634,3.771-22.624,13.484-30.6,12.66-10.392,35.056-13.507,56.908-15.806,8.537-.9,16.849-1.8,24.714-2.95,10.029-1.464,18.621-2.4,28.732-3.138l1.616-.116c6.753-.447,14.114-.572,21.234-.694,2.936-.049,5.874-.1,8.787-.171,32.524-.8,65.613-4.138,93.172-9.4,4.546-.868,9.013-1.9,13.331-2.891,12.258-2.823,23.815-5.493,37.8-5,21.159.738,38.315,6.468,56.478,12.536,7.018,2.344,14.274,4.768,21.824,6.9,5.9,1.661,11.149,2.95,16.056,3.936,30.97,6.228,56.461,3.119,85.235-10.4,2.337-1.1,4.681-2.107,6.964-3,33.222-12.938,47.208-4.8,61.411,14.726,9.906,13.621,28.326,27.716,47.63,22.617C-174.046-167-167.8-182.6-165.532-194.9l.406-2.238a87.689,87.689,0,0,1,3.827-15.638c2.845-7.385,6.993-12.507,13.053-16.118,6.848-4.081,16.07-5.935,24.99-7.729,3.193-.641,6.5-1.3,9.579-2.054,5.555-1.352,12.475-3.448,16.719-7.7,3.856-3.859,4.49-8.1,5.161-12.582.51-3.409,1.038-6.935,3.048-10.478a21.476,21.476,0,0,1,4.681-5.63c12.956-11.221,40.778-16.359,61.542-6.12C-6.854-273.457,3.2-261.313,12.92-249.569c4.088,4.936,8.315,10.041,12.828,14.613,13.294,13.468,25.609,22.632,36.6,27.235,7.434,3.118,13.893,4.047,19.74,2.834,5.445-1.128,8.483-4.215,11.085-7.53v-1.82C90.319-210.445,87.489-206.945,81.762-205.757Z" transform="translate(0 32.577)" fill="url(#linear-gradient)"/>
    <path id="Path_231" data-name="Path 231" d="M81.223-194.341c-5.76,1.611-12.03.846-19.172-2.335C46.594-203.551,32.3-219.894,26.865-226.6c-3.4-4.2-6.653-8.723-9.794-13.094-9.614-13.373-19.555-27.2-36.365-36.114-19.719-10.455-50.923-7.977-64.2,5.1a20.17,20.17,0,0,0-4.463,6.436c-1.738,4.052-1.8,8.2-1.869,12.214-.083,5.169-.164,10.05-3.659,14.43-3,3.753-7.965,6.5-16.1,8.911-3.292.965-6.864,1.822-10.321,2.649-8.882,2.127-18.067,4.326-24.841,8.794-6.2,4.107-10.144,9.763-12.428,17.8a92.177,92.177,0,0,0-2.507,15.444q-.177,1.685-.36,3.349c-.905,8.227-5.08,27.826-24.215,32.127-15.869,3.6-29.89-5.755-39.243-17.275a72.715,72.715,0,0,0-9.726-14.787c-7.577-11.437-15.757-17.961-25.423-20.337-9.786-2.406-21.285-.629-35.149,5.434-2.24.979-4.6,2.122-7.034,3.4-29.117,15.436-54.843,19.787-86.008,14.572-5.18-.868-10.569-2.02-16.478-3.523-8.306-2.114-16.234-4.622-23.9-7.045-18.2-5.755-35.393-11.192-56.693-11.537-14.052-.231-26.876,1.911-39.28,3.981-3.207.535-6.425,1.071-9.678,1.572-21.758,3.346-54.42,7.809-86.743,7.937-9.411.031-19.133-.27-28.289-.589l-1.581-.051c-3.288-.114-6.468-.247-9.593-.378-6.821-.287-13.265-.558-20.067-.592-7.262-.034-15.741-.04-24.365.4-17.607.9-41.06,4.534-52.8,16.746-8.267,8.6-8.808,19.722-9.33,30.48-.51,10.437-1.034,21.23-8.381,30.145a50.049,50.049,0,0,1-11.12,9.421c-3.821,2.523-7.619,4.727-11.294,6.857-1.629.945-3.226,1.869-4.774,2.794-5.132,3.068-10.37,6.589-13.886,11.54-3.995,5.619-4.9,12.03-5.29,18.121-.108,1.689-.189,3.42-.269,5.175-.385,8.322-.783,16.927-4.148,24.56a35.5,35.5,0,0,1-6.991,10.272c-8.632,9.711-20.96,18.267-33.558,26.45v1.2c12.937-8.379,25.672-17.138,34.558-27.137a36.3,36.3,0,0,0,7.146-10.5c3.419-7.758,3.819-16.427,4.208-24.813.081-1.751.16-3.477.267-5.164.381-5.984,1.268-12.277,5.151-17.742,3.413-4.8,8.541-8.25,13.573-11.255,1.544-.922,3.135-1.845,4.759-2.786,3.69-2.139,7.5-4.351,11.354-6.894a51.011,51.011,0,0,0,11.35-9.625c7.513-9.119,8.046-20.032,8.557-30.586.541-11.112,1.053-21.606,9.107-29.986,11.458-11.924,34.544-15.483,51.888-16.369,8.582-.436,17.034-.435,24.273-.4,6.771.034,13.2.3,20.007.59,3.129.131,6.313.265,9.605.378l1.583.052c9.169.319,18.884.621,28.349.589,32.433-.128,65.176-4.6,86.983-7.957,3.259-.5,6.483-1.039,9.7-1.575,12.9-2.15,25.083-4.189,38.988-3.958,21.068.342,38.153,5.745,56.244,11.465,7.685,2.43,15.633,4.943,23.981,7.068,5.951,1.513,11.381,2.674,16.6,3.549,31.544,5.288,57.555.886,86.979-14.715,2.4-1.262,4.737-2.392,6.947-3.358,13.542-5.924,24.712-7.68,34.15-5.354,7.72,1.9,14.493,6.593,20.8,14.487a36.252,36.252,0,0,0-15.892-8.068c-11.549-2.555-25.129.68-40.362,9.6-34.871,20.424-64.088,24.81-104.214,15.637-9.023-2.062-17.566-4.633-25.829-7.117-18.24-5.488-35.464-10.623-56.863-10.569-21.115.1-41.518,2.552-61.252,4.921-31.272,3.76-60.81,7.308-93.647,2.52-5.335-.778-10.745-1.729-15.975-2.649-12.556-2.21-25.537-4.5-38.682-4.6-17.075-.12-38.742,4.429-48.492,17.631-6.759,9.151-5.994,19.994-5.255,30.478.785,11.172,1.529,21.724-5.957,30.5-5.559,6.518-14.452,10.515-23.871,14.749-8.617,3.874-17.527,7.88-23.525,13.983-8.3,8.444-9.442,19.084-10.55,29.375-.663,6.155-1.347,12.519-3.547,18.374-7.161,19.072-29.424,32.089-50.952,44.678-.756.441-1.5.88-2.248,1.321v2.307c1.252-.735,2.488-1.467,3.75-2.205,21.836-12.77,44.419-25.973,51.793-45.614,2.263-6.023,2.957-12.476,3.63-18.716,1.129-10.5,2.2-20.42,10.088-28.451,5.71-5.81,14.406-9.72,22.819-13.5,9.245-4.155,18.8-8.453,24.669-15.327,7.9-9.261,7.1-20.6,6.33-31.563-.721-10.232-1.465-20.812,4.958-29.512,9.233-12.5,30.01-16.825,46.333-16.691,12.873.1,25.721,2.359,38.147,4.546,5.255.925,10.687,1.88,16.068,2.666,33.268,4.85,64.4,1.108,94.5-2.509,19.64-2.36,39.95-4.8,60.879-4.9,20.788-.108,37.923,5.018,55.935,10.437,8.309,2.5,16.9,5.086,26.026,7.171,40.47,9.249,71.3,4.631,106.433-15.946,14.576-8.538,27.412-11.662,38.166-9.287,12.542,2.771,23.018,13.229,31.142,31.084,7.772,17.087,24.714,35.547,46.911,31.327,22.22-4.223,24.93-27.02,25.23-33.907.058-1.332.1-2.683.147-4.044.4-12.474.823-25.372,12.169-33.636,6.2-4.519,15.028-6.957,23.562-9.315,11.29-3.119,22.964-6.345,28.268-14.462,3.566-5.459,3.05-11.582,2.551-17.5-.373-4.415-.756-8.98.57-13.194,2.244-7.129,9.27-12.6,19.781-15.4,15.009-4,34.192-1.843,46.644,5.243,17.485,9.948,27.058,25.508,36.315,40.554,2.221,3.613,4.521,7.348,6.887,10.935,2.712,4.112,24.98,36.743,48.258,36.738a23.78,23.78,0,0,0,7.849-1.319c6.274-2.181,9.21-7.1,11.709-12.186v-5.32c-.47.929-.92,1.865-1.361,2.786-2.691,5.628-5.234,10.944-11.379,13.08C61.123-173.753,38.1-199.046,27.54-215.05c-2.352-3.565-4.643-7.288-6.86-10.891C11.3-241.19,1.6-256.956-16.369-267.18c-13.07-7.438-33.2-9.7-48.94-5.51C-76.626-269.675-84.2-263.749-86.64-256c-1.409,4.476-1.013,9.176-.63,13.722.5,5.949.974,11.57-2.31,16.6-4.88,7.467-15.59,10.426-26.93,13.559-8.771,2.424-17.842,4.93-24.414,9.717-12.052,8.779-12.484,22.049-12.9,34.884-.044,1.356-.087,2.7-.145,4.03-.288,6.568-2.824,28.3-23.4,32.212s-36.566-13.8-44-30.153c-.1-.21-.2-.405-.292-.613,9.51,10.216,22.8,17.751,37.755,14.361,19.85-4.462,24.147-24.508,25.075-32.918.126-1.11.242-2.229.36-3.354a91.809,91.809,0,0,1,2.484-15.328c2.227-7.837,6.056-13.336,12.049-17.31,6.579-4.338,15.641-6.51,24.4-8.607,3.475-.834,7.065-1.692,10.4-2.669,5.661-1.675,12.674-4.246,16.7-9.292,3.661-4.588,3.744-9.588,3.829-14.88.064-3.945.13-8.026,1.811-11.952a19.351,19.351,0,0,1,4.274-6.162c12.912-12.722,43.3-15.11,62.528-4.915,16.578,8.791,26.451,22.523,36,35.8,3.149,4.382,6.407,8.911,9.825,13.134,6.8,8.4,20.477,23.506,35.6,30.233,7.378,3.286,14.185,4.1,20.225,2.406,5.949-1.663,8.926-5.824,11.522-10.135v-2.236c-.064.109-.131.219-.2.33C90.11-200.668,87.4-196.069,81.223-194.341Z" transform="translate(0 35.439)" fill="url(#linear-gradient)"/>
    <path id="Path_232" data-name="Path 232" d="M-839.05-319.745a28.014,28.014,0,0,0,8.828-11.768c1.948-5.26,1.716-10.6,1.49-15.771-.006-.171-.014-.342-.021-.513h-2.434l.022.572c.232,5.265.448,10.236-1.4,15.231a26.311,26.311,0,0,1-8.3,11.044c-6.259,5.209-15.3,8.6-24.484,11.667v1.984C-855.587-310.532-845.865-314.073-839.05-319.745Z" transform="translate(0)" fill="url(#linear-gradient)"/>
    <path id="Path_233" data-name="Path 233" d="M71.12-313.335c-8.59-1.538-17.5-1.059-26.128-.6a150.544,150.544,0,0,1-19.57.205c-14.228-1.113-27.232-6.37-39.807-11.452-9.668-3.908-19.665-7.949-30.346-10.218-16-3.4-25.253,2.446-34.21,8.1-5.748,3.628-11.692,7.378-19.518,8.834-14.591,2.719-23.714-2.133-34.268-7.751-6.342-3.374-12.9-6.864-21.215-8.957-22.775-5.735-40.113-5.144-56.219,1.913-13.01,5.7-21.907,15.034-30.512,24.056a169.424,169.424,0,0,1-14.5,14.037c-6.962,5.745-17,7.046-27.619,8.421-9.013,1.168-18.333,2.376-25.568,6.567-8.192,4.744-12.411,10.714-16.493,16.487-6.856,9.7-12.778,18.079-35.94,18.143-28.759.028-54.217-14.3-75.407-28.367l-4.759-3.173c-20.38-13.616-41.452-27.7-68.126-32.09-23.422-3.856-38.079,6.29-52.251,16.1-6.937,4.805-14.112,9.773-22.33,13.185-27.3,11.328-68.029,14.755-103.967,17.78-15.939,1.341-31,2.608-44.307,4.451-18.6,2.577-34.931,5.425-46.356,14.214-9.666,7.436-13.447,17.609-17.106,27.448a106.061,106.061,0,0,1-6.291,14.626c-13.664,24.622-36.951,31.441-63.653,33.505v1.785c27.074-2.131,51.8-9.191,65.9-34.6a107.454,107.454,0,0,0,6.386-14.834c3.74-10.064,7.275-19.568,16.51-26.673,10.925-8.4,26.867-11.173,45.051-13.692,13.227-1.831,28.241-3.095,44.137-4.432,36.166-3.045,77.158-6.494,104.879-18,8.474-3.517,15.76-8.561,22.8-13.441,14.342-9.931,27.887-19.317,50.067-15.66,26.049,4.291,46.883,18.209,67.026,31.669l4.766,3.178c21.476,14.259,47.384,28.824,76.794,28.824h.242c24.627-.066,31.164-9.316,38.087-19.11,3.96-5.6,8.056-11.4,15.832-15.9,6.757-3.913,15.772-5.081,24.491-6.209,10.563-1.37,21.486-2.785,29.01-8.994a170.746,170.746,0,0,0,14.682-14.2c8.456-8.866,17.2-18.038,29.764-23.543,15.436-6.767,32.151-7.31,54.2-1.759,7.975,2.008,14.382,5.419,20.579,8.717,10.586,5.633,20.587,10.953,36.276,8.033,8.375-1.558,14.539-5.448,20.5-9.208,8.858-5.588,17.22-10.87,31.966-7.737,10.424,2.213,20.3,6.206,29.855,10.068,12.782,5.168,26,10.511,40.714,11.66a152.328,152.328,0,0,0,20-.2c8.435-.455,17.158-.925,25.382.549,10.074,1.8,16.76,7.023,22.622,13.421V-301.3C87.491-307.027,80.833-311.6,71.12-313.335Z" transform="translate(0 4.727)" fill="url(#linear-gradient)"/>
  </g>
</svg>
