<svg xmlns="http://www.w3.org/2000/svg" width="22" height="22" viewBox="0 0 22 22">
  <g id="m-icon-5" transform="translate(0 0)">
    <path id="Path_28885" data-name="Path 28885" d="M6.367,54.388a2.752,2.752,0,0,1-1.693.585A3.387,3.387,0,0,1,1.291,51.59V46.339a.478.478,0,0,1,.957,0v.678H3.539v-.678a1.769,1.769,0,1,0-3.539,0V51.59a4.679,4.679,0,0,0,4.674,4.674,4.049,4.049,0,0,0,1.912-.483l.559-2.035Z" transform="translate(0 -42.655)" fill="#fff"/>
    <path id="Path_28886" data-name="Path 28886" d="M352.8,51.59V46.339a1.769,1.769,0,0,0-3.539,0v.678h1.291v-.678a.478.478,0,0,1,.957,0V51.59a3.387,3.387,0,0,1-3.383,3.383,2.752,2.752,0,0,1-1.693-.585l-.781-.645.547,2.03a4.049,4.049,0,0,0,1.927.491A4.679,4.679,0,0,0,352.8,51.59Z" transform="translate(-330.804 -42.655)" fill="#fff"/>
    <path id="Path_28887" data-name="Path 28887" d="M13.406,11.037c.223-.366,1.3-1.875,1.623-2.248A5.321,5.321,0,1,0,6.91,8.734c.346.413,1.46,1.961,1.679,2.317l-1.8,5.643a1.579,1.579,0,0,1-1.509,1.1H5.133a1.442,1.442,0,0,1-1.441-1.441,1.848,1.848,0,0,0-1.846-1.846h0A1.846,1.846,0,0,0,0,16.355v.605H1.291v-.605a.555.555,0,0,1,1.111,0,2.735,2.735,0,0,0,2.732,2.732h.144a2.866,2.866,0,0,0,2.739-2L9.207,13.36v6.859a.491.491,0,1,1-.981,0v-.727H6.935v.727a1.781,1.781,0,0,0,3.563,0V12.625h.99v7.594a1.781,1.781,0,0,0,3.563,0v-.727H13.76v.727a.491.491,0,1,1-.981,0v-6.9l1.205,3.773a2.866,2.866,0,0,0,2.739,2h.144A2.735,2.735,0,0,0,19.6,16.355a.555.555,0,0,1,1.111,0v.6H22v-.6a1.846,1.846,0,0,0-3.692,0A1.442,1.442,0,0,1,16.867,17.8h-.144a1.58,1.58,0,0,1-1.509-1.1ZM11.667,5.9h1.291V7.589H11.667Zm-2.625,0h1.291V7.589H9.042Z" transform="translate(0 0)" fill="#fff"/>
  </g>
</svg>
