<svg id="m-icon-4" xmlns="http://www.w3.org/2000/svg" width="24" height="24" viewBox="0 0 24 24">
  <path id="Path_28888" data-name="Path 28888" d="M0,0H24V24H0Z" fill="none"/>
  <path id="Path_28889" data-name="Path 28889" d="M2.132,13.63a9.942,9.942,0,0,1,0-3.26A2.52,2.52,0,0,0,4.609,8.939a2.518,2.518,0,0,0-.74-2.763A9.942,9.942,0,0,1,6.175,3.869a2.52,2.52,0,0,0,2.764.74,2.518,2.518,0,0,0,1.43-2.477,9.942,9.942,0,0,1,3.262,0,2.518,2.518,0,0,0,1.43,2.477,2.518,2.518,0,0,0,2.763-.74,9.942,9.942,0,0,1,2.307,2.306,2.52,2.52,0,0,0-.74,2.764,2.518,2.518,0,0,0,2.477,1.43,9.942,9.942,0,0,1,0,3.262,2.518,2.518,0,0,0-2.477,1.43,2.518,2.518,0,0,0,.74,2.763,9.942,9.942,0,0,1-2.306,2.307,2.52,2.52,0,0,0-2.764-.74,2.518,2.518,0,0,0-1.43,2.477,9.942,9.942,0,0,1-3.262,0,2.518,2.518,0,0,0-1.43-2.477,2.518,2.518,0,0,0-2.763.74,9.942,9.942,0,0,1-2.307-2.306,2.52,2.52,0,0,0,.74-2.764,2.518,2.518,0,0,0-2.477-1.43ZM12,15a3,3,0,1,0-3-3A3,3,0,0,0,12,15Z" fill="#fff"/>
</svg>
