<svg xmlns="http://www.w3.org/2000/svg" width="36.938" height="36.938" viewBox="0 0 36.938 36.938">
  <g id="star" transform="translate(10.45 10.138)">
    <path id="Path_28896" data-name="Path 28896" d="M31.528,5.409A18.469,18.469,0,0,0,5.409,31.528,18.469,18.469,0,0,0,31.528,5.409ZM26.3,29.347l-7.83-4.117-7.83,4.117,1.5-8.719L5.8,14.453l8.755-1.272,3.915-7.933,3.915,7.933,8.755,1.272L24.8,20.628Z" transform="translate(-10.45 -10.138)"/>
    <path id="Path_28897" data-name="Path 28897" d="M160.885,146.35l-5.541-.805-2.478-5.021-2.478,5.021-5.541.805,4.01,3.908-.947,5.519,4.956-2.606,4.956,2.606-.947-5.519Z" transform="translate(-144.847 -140.524)"/>
  </g>
</svg>
